<mxfile host="65bd71144e">
    <diagram id="eDAFyLVzRM_iFxNA9Nbj" name="Page-1">
        <mxGraphModel dx="2316" dy="784" grid="1" gridSize="10" guides="1" tooltips="1" connect="1" arrows="1" fold="1" page="1" pageScale="1" pageWidth="1100" pageHeight="850" background="#ffffff" math="0" shadow="0">
            <root>
                <mxCell id="0"/>
                <mxCell id="1" parent="0"/>
                <mxCell id="5" value="" style="group" vertex="1" connectable="0" parent="1">
                    <mxGeometry x="-1045.17" y="260" width="199.83999999999997" height="220" as="geometry"/>
                </mxCell>
                <mxCell id="2" value="" style="shape=cube;whiteSpace=wrap;html=1;boundedLbl=1;backgroundOutline=1;darkOpacity=0.05;darkOpacity2=0.1;size=10;rotation=90;fillColor=#FFFFFF;strokeColor=#000000;fontColor=#000000;" vertex="1" parent="5">
                    <mxGeometry x="-34.83" y="32.5" width="234.67" height="155" as="geometry"/>
                </mxCell>
                <mxCell id="3" value="&lt;b&gt;&lt;font style=&quot;font-size: 13px;&quot;&gt;Web Server&lt;/font&gt;&lt;/b&gt;" style="text;html=1;strokeColor=none;fillColor=none;align=center;verticalAlign=middle;whiteSpace=wrap;rounded=0;fontColor=#000000;" vertex="1" parent="5">
                    <mxGeometry x="5.333333333333333" y="10" width="138.66666666666666" height="30" as="geometry"/>
                </mxCell>
                <mxCell id="4" value="&lt;span style=&quot;font-weight: normal; font-size: 13px;&quot;&gt;&lt;font style=&quot;font-size: 13px;&quot;&gt;Registration System&lt;/font&gt;&lt;/span&gt;" style="rounded=1;whiteSpace=wrap;html=1;strokeColor=#B0B0B0;strokeWidth=1;fontSize=13;fontColor=#000000;fillColor=#E6E6E6;fontStyle=1;verticalAlign=middle;" vertex="1" parent="5">
                    <mxGeometry x="10.663333333333334" y="50" width="133.33333333333334" height="35" as="geometry"/>
                </mxCell>
                <mxCell id="6" value="&lt;span style=&quot;font-weight: normal; font-size: 12px;&quot;&gt;&lt;font style=&quot;font-size: 12px;&quot;&gt;Course Database&lt;/font&gt;&lt;/span&gt;" style="rounded=1;whiteSpace=wrap;html=1;strokeColor=#B0B0B0;strokeWidth=1;fontSize=12;fontColor=#000000;fillColor=#E6E6E6;fontStyle=1;verticalAlign=middle;" vertex="1" parent="5">
                    <mxGeometry x="20.66" y="170" width="109.34" height="35" as="geometry"/>
                </mxCell>
                <mxCell id="26" value="" style="endArrow=classic;html=1;fontSize=10;fontColor=#000000;strokeColor=#000000;entryX=0.5;entryY=0;entryDx=0;entryDy=0;" edge="1" parent="5" target="6">
                    <mxGeometry width="50" height="50" relative="1" as="geometry">
                        <mxPoint x="74.92000000000007" y="85" as="sourcePoint"/>
                        <mxPoint x="124.92000000000007" y="35" as="targetPoint"/>
                    </mxGeometry>
                </mxCell>
                <mxCell id="37" value="Access" style="text;html=1;strokeColor=none;fillColor=none;align=center;verticalAlign=middle;whiteSpace=wrap;rounded=0;fontSize=10;fontColor=#000000;" vertex="1" parent="5">
                    <mxGeometry x="71.92" y="120" width="56" height="20" as="geometry"/>
                </mxCell>
                <mxCell id="7" value="" style="shape=cube;whiteSpace=wrap;html=1;boundedLbl=1;backgroundOutline=1;darkOpacity=0.05;darkOpacity2=0.1;strokeColor=#000000;fontSize=12;fontColor=#000000;fillColor=#FFFFFF;rotation=90;size=5;" vertex="1" parent="1">
                    <mxGeometry x="-810.17" y="395" width="65" height="125" as="geometry"/>
                </mxCell>
                <mxCell id="10" value="" style="shape=cube;whiteSpace=wrap;html=1;boundedLbl=1;backgroundOutline=1;darkOpacity=0.05;darkOpacity2=0.1;strokeColor=#000000;fontSize=12;fontColor=#000000;fillColor=#FFFFFF;rotation=90;size=5;" vertex="1" parent="1">
                    <mxGeometry x="-652.5" y="395" width="65" height="125" as="geometry"/>
                </mxCell>
                <mxCell id="11" value="" style="shape=cube;whiteSpace=wrap;html=1;boundedLbl=1;backgroundOutline=1;darkOpacity=0.05;darkOpacity2=0.1;strokeColor=#000000;fontSize=12;fontColor=#000000;fillColor=#FFFFFF;rotation=90;size=5;" vertex="1" parent="1">
                    <mxGeometry x="-475.17" y="382.5" width="65" height="150" as="geometry"/>
                </mxCell>
                <mxCell id="12" value="" style="shape=cube;whiteSpace=wrap;html=1;boundedLbl=1;backgroundOutline=1;darkOpacity=0.05;darkOpacity2=0.1;strokeColor=#000000;fontSize=12;fontColor=#000000;fillColor=#FFFFFF;rotation=90;size=5;" vertex="1" parent="1">
                    <mxGeometry x="-302.49999999999994" y="395" width="65" height="125" as="geometry"/>
                </mxCell>
                <mxCell id="13" value="&lt;b style=&quot;font-size: 11px;&quot;&gt;&lt;font style=&quot;font-size: 11px;&quot;&gt;Database Server&lt;/font&gt;&lt;/b&gt;" style="text;html=1;strokeColor=none;fillColor=none;align=center;verticalAlign=middle;whiteSpace=wrap;rounded=0;fontColor=#000000;fontSize=11;" vertex="1" parent="1">
                    <mxGeometry x="-830" y="430" width="100" height="20" as="geometry"/>
                </mxCell>
                <mxCell id="14" value="&lt;b style=&quot;font-size: 11px;&quot;&gt;&lt;font style=&quot;font-size: 11px;&quot;&gt;Email Server&lt;/font&gt;&lt;/b&gt;" style="text;html=1;strokeColor=none;fillColor=none;align=center;verticalAlign=middle;whiteSpace=wrap;rounded=0;fontColor=#000000;fontSize=11;" vertex="1" parent="1">
                    <mxGeometry x="-670" y="430" width="100" height="20" as="geometry"/>
                </mxCell>
                <mxCell id="15" value="&lt;b style=&quot;font-size: 11px;&quot;&gt;&lt;font style=&quot;font-size: 11px;&quot;&gt;Notification Server&lt;/font&gt;&lt;/b&gt;" style="text;html=1;strokeColor=none;fillColor=none;align=center;verticalAlign=middle;whiteSpace=wrap;rounded=0;fontColor=#000000;fontSize=11;" vertex="1" parent="1">
                    <mxGeometry x="-492.67" y="430" width="100" height="20" as="geometry"/>
                </mxCell>
                <mxCell id="16" value="&lt;b style=&quot;font-size: 11px;&quot;&gt;&lt;font style=&quot;font-size: 11px;&quot;&gt;Payment Gateway&lt;/font&gt;&lt;/b&gt;" style="text;html=1;strokeColor=none;fillColor=none;align=center;verticalAlign=middle;whiteSpace=wrap;rounded=0;fontColor=#000000;fontSize=11;" vertex="1" parent="1">
                    <mxGeometry x="-320" y="430" width="100" height="20" as="geometry"/>
                </mxCell>
                <mxCell id="17" value="Student Database" style="shape=cylinder3;whiteSpace=wrap;html=1;boundedLbl=1;backgroundOutline=1;size=5.948717948717956;strokeColor=#000000;fontSize=11;fontColor=#000000;fillColor=#FFFFFF;" vertex="1" parent="1">
                    <mxGeometry x="-830" y="450" width="100" height="30" as="geometry"/>
                </mxCell>
                <mxCell id="23" value="&lt;span style=&quot;font-weight: normal; font-size: 10px;&quot;&gt;&lt;font style=&quot;font-size: 10px;&quot;&gt;Email Service&lt;/font&gt;&lt;/span&gt;" style="rounded=1;whiteSpace=wrap;html=1;strokeColor=#B0B0B0;strokeWidth=1;fontSize=10;fontColor=#000000;fillColor=#E6E6E6;fontStyle=1;verticalAlign=middle;" vertex="1" parent="1">
                    <mxGeometry x="-665" y="452.5" width="90" height="25" as="geometry"/>
                </mxCell>
                <mxCell id="24" value="&lt;span style=&quot;font-weight: normal; font-size: 10px;&quot;&gt;&lt;font style=&quot;font-size: 10px;&quot;&gt;Notification Service&lt;/font&gt;&lt;/span&gt;" style="rounded=1;whiteSpace=wrap;html=1;strokeColor=#B0B0B0;strokeWidth=1;fontSize=10;fontColor=#000000;fillColor=#E6E6E6;fontStyle=1;verticalAlign=middle;" vertex="1" parent="1">
                    <mxGeometry x="-505" y="455" width="125" height="25" as="geometry"/>
                </mxCell>
                <mxCell id="25" value="&lt;span style=&quot;font-weight: normal; font-size: 10px;&quot;&gt;&lt;font style=&quot;font-size: 10px;&quot;&gt;Payment Service&lt;/font&gt;&lt;/span&gt;" style="rounded=1;whiteSpace=wrap;html=1;strokeColor=#B0B0B0;strokeWidth=1;fontSize=10;fontColor=#000000;fillColor=#E6E6E6;fontStyle=1;verticalAlign=middle;" vertex="1" parent="1">
                    <mxGeometry x="-315" y="455" width="90" height="25" as="geometry"/>
                </mxCell>
                <mxCell id="27" value="" style="endArrow=classic;html=1;strokeColor=#000000;fontSize=10;fontColor=#000000;entryX=0;entryY=0;entryDx=0;entryDy=60.00000000000001;entryPerimeter=0;exitX=0.636;exitY=1;exitDx=0;exitDy=0;exitPerimeter=0;" edge="1" parent="1" source="4" target="7">
                    <mxGeometry width="50" height="50" relative="1" as="geometry">
                        <mxPoint x="-940" y="342.5" as="sourcePoint"/>
                        <mxPoint x="-890" y="292.5" as="targetPoint"/>
                    </mxGeometry>
                </mxCell>
                <mxCell id="34" value="" style="curved=1;endArrow=classic;html=1;strokeColor=#000000;fontSize=10;fontColor=#000000;exitX=1;exitY=1;exitDx=0;exitDy=0;entryX=0.25;entryY=1;entryDx=0;entryDy=0;" edge="1" parent="1" source="4" target="14">
                    <mxGeometry width="50" height="50" relative="1" as="geometry">
                        <mxPoint x="-620" y="400" as="sourcePoint"/>
                        <mxPoint x="-570" y="350" as="targetPoint"/>
                        <Array as="points">
                            <mxPoint x="-750" y="380"/>
                        </Array>
                    </mxGeometry>
                </mxCell>
                <mxCell id="35" value="" style="curved=1;endArrow=classic;html=1;strokeColor=#000000;fontSize=10;fontColor=#000000;entryX=0.208;entryY=0;entryDx=0;entryDy=0;entryPerimeter=0;" edge="1" parent="1" target="24">
                    <mxGeometry width="50" height="50" relative="1" as="geometry">
                        <mxPoint x="-900" y="330" as="sourcePoint"/>
                        <mxPoint x="-643.83" y="430.0000000000001" as="targetPoint"/>
                        <Array as="points">
                            <mxPoint x="-720" y="360"/>
                            <mxPoint x="-600" y="400"/>
                        </Array>
                    </mxGeometry>
                </mxCell>
                <mxCell id="36" value="" style="curved=1;endArrow=classic;html=1;strokeColor=#000000;fontSize=10;fontColor=#000000;entryX=0.25;entryY=0;entryDx=0;entryDy=0;" edge="1" parent="1" target="25">
                    <mxGeometry width="50" height="50" relative="1" as="geometry">
                        <mxPoint x="-900" y="328" as="sourcePoint"/>
                        <mxPoint x="-469" y="465.0000000000001" as="targetPoint"/>
                        <Array as="points">
                            <mxPoint x="-730" y="350"/>
                            <mxPoint x="-550" y="370"/>
                            <mxPoint x="-410" y="400"/>
                        </Array>
                    </mxGeometry>
                </mxCell>
                <mxCell id="38" value="Access" style="text;html=1;strokeColor=none;fillColor=none;align=center;verticalAlign=middle;whiteSpace=wrap;rounded=0;fontSize=10;fontColor=#000000;" vertex="1" parent="1">
                    <mxGeometry x="-880.0000000000001" y="362.5" width="56" height="20" as="geometry"/>
                </mxCell>
                <mxCell id="39" value="Send email" style="text;html=1;strokeColor=none;fillColor=none;align=center;verticalAlign=middle;whiteSpace=wrap;rounded=0;fontSize=10;fontColor=#000000;" vertex="1" parent="1">
                    <mxGeometry x="-730" y="395" width="90" height="20" as="geometry"/>
                </mxCell>
                <mxCell id="40" value="Send notification" style="text;html=1;strokeColor=none;fillColor=none;align=center;verticalAlign=middle;whiteSpace=wrap;rounded=0;fontSize=10;fontColor=#000000;" vertex="1" parent="1">
                    <mxGeometry x="-600" y="395" width="110" height="20" as="geometry"/>
                </mxCell>
                <mxCell id="41" value="Process payment" style="text;html=1;strokeColor=none;fillColor=none;align=center;verticalAlign=middle;whiteSpace=wrap;rounded=0;fontSize=10;fontColor=#000000;" vertex="1" parent="1">
                    <mxGeometry x="-450" y="382.5" width="110" height="20" as="geometry"/>
                </mxCell>
            </root>
        </mxGraphModel>
    </diagram>
</mxfile>